<?xml version="1.0" standalone="no"?>
<!DOCTYPE svg PUBLIC "-//W3C//DTD SVG 20010904//EN"
 "http://www.w3.org/TR/2001/REC-SVG-20010904/DTD/svg10.dtd">
<svg version="1.0" xmlns="http://www.w3.org/2000/svg"
 width="3264.000000pt" height="3264.000000pt" viewBox="0 0 3264.000000 3264.000000"
 preserveAspectRatio="xMidYMid meet">

<g transform="translate(0.000000,3264.000000) scale(0.100000,-0.100000)"
fill="#000000" stroke="none">
<path d="M0 16320 l0 -16320 16320 0 16320 0 0 16320 0 16320 -16320 0 -16320
0 0 -16320z m16360 8400 c47 -4 139 -13 205 -19 321 -30 730 -98 970 -163 22
-6 56 -14 75 -19 19 -4 49 -12 65 -18 17 -6 64 -20 105 -32 134 -37 424 -137
495 -169 11 -5 65 -28 120 -50 137 -57 475 -218 545 -260 8 -5 83 -48 165 -96
289 -168 537 -340 816 -568 180 -146 599 -551 714 -691 27 -33 65 -78 85 -100
77 -89 106 -124 189 -234 107 -141 221 -300 261 -366 18 -27 49 -77 70 -110
22 -33 45 -70 52 -82 7 -12 41 -70 76 -130 35 -59 67 -115 72 -123 8 -14 31
-57 103 -195 42 -82 144 -298 172 -366 14 -35 30 -73 34 -84 47 -111 61 -146
75 -185 8 -25 27 -76 42 -115 14 -38 29 -83 33 -100 5 -16 13 -41 19 -55 6
-14 20 -59 32 -100 12 -41 26 -88 32 -105 12 -37 35 -122 53 -195 7 -30 18
-77 25 -105 7 -27 18 -75 26 -105 8 -30 18 -80 23 -110 10 -59 24 -135 46
-245 7 -38 16 -106 20 -150 3 -44 11 -100 16 -125 6 -25 15 -108 19 -185 5
-77 14 -219 21 -315 24 -373 -25 -1014 -107 -1405 -8 -38 -19 -95 -24 -125
-12 -69 -34 -173 -48 -225 -6 -22 -16 -60 -22 -85 -6 -25 -18 -70 -25 -100 -8
-30 -23 -86 -35 -125 -12 -38 -28 -92 -35 -120 -38 -134 -44 -154 -53 -171 -5
-11 -19 -50 -32 -89 -33 -104 -80 -235 -101 -282 -11 -23 -19 -46 -19 -51 0
-8 -16 -48 -50 -127 -5 -11 -34 -81 -65 -155 -83 -195 -266 -575 -375 -775
-21 -38 -53 -99 -72 -135 -31 -59 -282 -489 -318 -545 -8 -12 -30 -47 -48 -76
-50 -82 -54 -89 -89 -141 -18 -26 -33 -50 -33 -53 0 -3 -22 -36 -50 -75 -27
-39 -50 -72 -50 -75 0 -4 -211 -320 -298 -445 -117 -168 -140 -200 -247 -345
-38 -52 -95 -129 -125 -171 -103 -145 -306 -419 -380 -515 -41 -54 -82 -107
-90 -119 -8 -12 -23 -31 -32 -43 -9 -12 -100 -132 -202 -267 -102 -135 -196
-258 -209 -275 -14 -16 -82 -106 -153 -200 -71 -93 -165 -218 -209 -276 -76
-100 -204 -272 -430 -574 -217 -292 -276 -373 -505 -696 -178 -251 -214 -304
-260 -374 -19 -29 -89 -133 -154 -232 -66 -98 -144 -216 -174 -263 -30 -47
-63 -97 -73 -112 -11 -15 -19 -30 -19 -33 0 -3 -15 -27 -32 -53 -18 -26 -38
-57 -45 -67 -60 -98 -111 -182 -126 -208 -10 -18 -25 -44 -35 -59 -28 -44
-133 -224 -209 -358 -77 -136 -109 -194 -188 -345 -101 -191 -93 -178 -145
-232 -53 -54 -111 -76 -200 -76 -51 0 -85 5 -105 16 -16 9 -34 17 -38 17 -27
0 -91 77 -133 158 -21 42 -42 79 -45 82 -3 3 -20 34 -37 70 -41 85 -94 182
-165 302 -31 53 -57 99 -57 102 0 5 -265 456 -300 511 -8 13 -37 61 -65 107
-27 45 -53 88 -57 93 -5 6 -25 37 -46 70 -21 33 -51 80 -68 105 -16 25 -31 50
-34 55 -13 25 -448 682 -465 702 -5 6 -26 35 -45 63 -19 28 -51 73 -70 100
-19 27 -50 71 -68 97 -19 26 -88 125 -154 218 -65 94 -127 181 -136 195 -9 14
-39 55 -67 91 -27 37 -57 76 -65 89 -8 12 -40 55 -70 95 -30 40 -84 114 -120
164 -36 51 -141 195 -235 321 -93 126 -177 239 -185 251 -8 11 -46 63 -85 114
-38 51 -77 103 -85 115 -14 20 -127 172 -183 244 -12 16 -35 48 -52 71 -71
101 -162 225 -209 286 -28 37 -58 76 -66 89 -17 24 -110 153 -134 185 -31 40
-54 71 -88 120 -19 28 -86 122 -150 210 -63 88 -131 184 -151 213 -37 53 -77
109 -151 215 -23 32 -46 65 -51 75 -17 28 -49 77 -55 82 -7 7 -293 438 -325
492 -33 53 -129 207 -144 228 -10 14 -20 32 -24 40 -4 8 -25 42 -47 75 -22 33
-45 72 -51 88 -6 15 -15 27 -19 27 -4 0 -13 12 -19 28 -6 15 -20 41 -31 57
-11 17 -24 39 -29 50 -5 11 -29 54 -53 95 -25 41 -64 111 -88 155 -24 44 -54
98 -66 120 -24 43 -297 590 -319 640 -8 17 -30 65 -49 108 -20 42 -36 80 -36
84 0 3 -9 27 -21 52 -34 75 -45 101 -84 201 -83 214 -123 325 -157 430 -53
168 -97 313 -109 365 -6 22 -16 63 -24 90 -34 122 -47 173 -55 220 -5 28 -14
73 -20 100 -59 267 -98 537 -125 865 -17 216 -20 696 -5 800 5 36 12 117 15
180 3 63 12 156 20 205 8 50 19 126 24 170 21 163 81 467 117 589 8 26 14 57
14 67 0 10 6 36 14 56 7 21 24 74 36 118 75 259 199 593 305 820 83 179 201
408 259 505 8 14 22 39 30 55 9 17 25 44 36 60 11 17 23 37 27 45 4 8 22 36
40 62 18 26 33 50 33 53 0 13 298 437 320 455 3 3 33 39 65 80 60 77 147 180
219 260 54 61 406 412 481 480 33 30 98 87 144 125 46 39 89 75 95 80 21 19
73 60 96 75 12 8 52 38 89 66 201 155 535 369 736 474 33 17 74 40 90 51 17
10 37 22 45 25 8 4 74 35 145 69 72 34 159 75 195 90 99 42 121 51 170 73 25
11 68 27 95 37 28 9 58 21 67 26 22 11 299 105 365 123 26 7 86 24 133 38 135
39 263 71 355 89 28 5 82 16 120 24 196 40 240 47 480 74 50 6 133 16 185 22
225 27 669 37 850 19z m11220 -6409 c0 -4 6 -8 13 -8 6 0 42 -14 80 -32 37
-17 72 -31 77 -31 14 0 98 -131 112 -177 10 -33 20 -45 50 -59 21 -9 53 -32
72 -51 31 -32 35 -42 42 -110 9 -101 9 -208 0 -263 -13 -78 -57 -169 -107
-219 -20 -20 -48 -57 -63 -82 -25 -45 -72 -76 -161 -110 -69 -26 -115 -49
-115 -57 0 -16 -119 -7 -215 16 -173 42 -220 52 -234 52 -8 0 -33 12 -57 27
-31 20 -49 42 -68 83 -16 35 -39 64 -61 79 -19 13 -35 28 -35 33 0 5 -4 7 -8
4 -7 -4 -21 35 -38 109 -2 6 -10 37 -19 70 -9 33 -17 80 -17 105 -2 66 4 140
11 140 3 0 7 16 8 35 2 19 14 63 28 97 24 60 52 96 126 164 19 16 48 46 66 66
24 28 119 86 153 93 3 0 16 7 30 15 41 23 330 33 330 11z m-22269 -2777 c30
-9 74 -25 99 -36 163 -74 216 -113 227 -169 3 -16 9 -29 12 -29 17 0 89 -82
113 -129 52 -101 61 -149 54 -287 -6 -126 -27 -224 -47 -224 -5 0 -9 -6 -9
-14 0 -8 -16 -31 -35 -52 -19 -22 -35 -42 -35 -46 0 -4 -25 -33 -55 -63 -30
-31 -55 -59 -55 -61 0 -10 -25 -30 -75 -60 -66 -39 -279 -79 -370 -68 -55 7
-139 43 -171 72 -11 11 -30 23 -42 26 -12 4 -52 37 -90 72 -37 36 -79 72 -93
81 -22 13 -61 63 -65 83 0 3 -6 17 -12 33 -6 15 -16 75 -22 133 -5 58 -12 110
-16 115 -9 15 16 176 39 249 16 50 31 76 69 114 27 27 47 51 44 54 -3 2 6 13
19 24 14 11 25 26 25 33 0 14 62 57 89 62 9 2 33 6 54 9 20 3 37 10 37 14 0 4
17 10 38 14 21 3 59 17 85 30 25 14 65 27 89 29 24 2 43 4 44 5 0 1 25 -5 55
-14z"/>
<path d="M15665 21750 c-139 -17 -229 -32 -315 -52 -192 -44 -243 -59 -380
-108 -63 -23 -127 -45 -141 -49 -14 -5 -34 -13 -45 -19 -10 -6 -41 -21 -69
-33 -75 -33 -248 -120 -261 -130 -6 -5 -32 -20 -57 -33 -44 -24 -132 -81 -255
-166 -169 -117 -457 -383 -578 -535 -27 -33 -53 -65 -59 -71 -5 -6 -25 -30
-43 -55 -104 -140 -131 -179 -158 -222 -16 -27 -37 -61 -46 -75 -45 -70 -184
-345 -223 -442 -14 -36 -30 -74 -35 -85 -22 -49 -120 -370 -120 -393 0 -9 -6
-38 -14 -66 -22 -79 -45 -219 -59 -356 -23 -240 -10 -720 24 -852 5 -20 14
-67 19 -105 9 -68 16 -98 52 -228 33 -119 61 -210 68 -220 4 -5 11 -26 15 -45
4 -19 14 -44 21 -55 8 -11 14 -25 14 -32 0 -23 155 -345 206 -428 13 -22 27
-47 31 -55 6 -14 85 -132 153 -230 17 -25 41 -56 53 -70 12 -14 49 -59 81
-100 69 -86 307 -330 369 -377 23 -17 51 -40 62 -50 36 -33 115 -96 154 -122
21 -14 79 -53 127 -86 49 -33 96 -63 104 -68 8 -4 33 -18 55 -31 89 -54 404
-206 425 -206 7 0 24 -7 38 -14 32 -17 202 -76 252 -87 19 -4 76 -19 125 -32
50 -14 110 -28 135 -32 25 -3 74 -12 110 -20 153 -32 369 -47 605 -43 127 3
266 10 310 17 215 32 372 63 490 96 77 22 285 91 330 110 172 69 426 196 466
231 8 8 19 14 23 14 4 0 19 8 34 19 15 10 54 36 87 57 33 21 65 42 70 46 186
139 292 229 420 355 279 274 537 650 684 999 23 54 48 113 56 129 42 93 133
407 150 515 3 25 10 59 15 75 5 17 18 102 30 191 35 278 26 689 -21 934 -6 30
-15 78 -20 105 -16 81 -38 175 -61 250 -31 106 -88 274 -98 293 -5 9 -19 44
-32 77 -21 55 -110 235 -170 345 -35 64 -124 206 -138 220 -3 3 -21 28 -39 55
-117 169 -319 393 -501 557 -87 77 -286 230 -356 273 -27 16 -85 52 -129 79
-92 56 -363 196 -381 196 -7 0 -25 6 -41 14 -54 26 -98 44 -163 65 -36 12 -78
27 -95 32 -16 6 -46 15 -65 19 -19 5 -62 16 -95 25 -164 45 -290 68 -493 90
-179 20 -524 17 -707 -5z"/>
</g>
</svg>
